<svg width="72" height="72" viewBox="0 0 72 72" fill="none" xmlns="http://www.w3.org/2000/svg">
<path d="M59.8477 41.7969H11.8477C10.1908 41.7969 8.84766 43.14 8.84766 44.7969V59.7969C8.84766 61.4537 10.1908 62.7969 11.8477 62.7969H59.8477C61.5045 62.7969 62.8477 61.4537 62.8477 59.7969V44.7969C62.8477 43.14 61.5045 41.7969 59.8477 41.7969Z" stroke="#3A7F88" stroke-width="4" stroke-linecap="round" stroke-linejoin="round"/>
<path d="M27 8.84766H12C10.3431 8.84766 9 10.1908 9 11.8477V26.8477C9 28.5045 10.3431 29.8477 12 29.8477H27C28.6569 29.8477 30 28.5045 30 26.8477V11.8477C30 10.1908 28.6569 8.84766 27 8.84766Z" stroke="#3A7F88" stroke-width="4" stroke-linecap="round" stroke-linejoin="round"/>
<path d="M60 8.84766H45C43.3431 8.84766 42 10.1908 42 11.8477V26.8477C42 28.5045 43.3431 29.8477 45 29.8477H60C61.6569 29.8477 63 28.5045 63 26.8477V11.8477C63 10.1908 61.6569 8.84766 60 8.84766Z" stroke="#3A7F88" stroke-width="4" stroke-linecap="round" stroke-linejoin="round"/>
</svg>
