<svg width="72" height="72" viewBox="0 0 72 72" fill="none" xmlns="http://www.w3.org/2000/svg">
<path d="M29.9998 30V30.6C31.9673 31.3566 33.6068 32.7798 34.6323 34.6214C35.6579 36.4631 36.0046 38.6063 35.6118 40.6773C35.219 42.7483 34.1117 44.6157 32.4831 45.954C30.8544 47.2922 28.8077 48.0163 26.6998 48H14.9998C12.9171 47.9482 10.9169 47.1754 9.34032 45.8135C7.76375 44.4517 6.70848 42.585 6.35451 40.5319C6.00053 38.4789 6.36978 36.3666 7.39926 34.5554C8.42875 32.7442 10.0547 31.3463 11.9998 30.6V30C11.9998 27.6131 12.948 25.3239 14.6358 23.636C16.3237 21.9482 18.6128 21 20.9998 21C23.3867 21 25.6759 21.9482 27.3638 23.636C29.0516 25.3239 29.9998 27.6131 29.9998 30Z" stroke="#3A7F88" stroke-width="4" stroke-linecap="round" stroke-linejoin="round"/>
<path d="M21 48V66" stroke="#3A7F88" stroke-width="4" stroke-linecap="round" stroke-linejoin="round"/>
<path d="M39 57V66" stroke="#3A7F88" stroke-width="4" stroke-linecap="round" stroke-linejoin="round"/>
<path d="M35.9998 57H60.8998C61.487 56.9918 62.0588 56.8114 62.5444 56.4812C63.0301 56.151 63.4081 55.6855 63.6317 55.1425C63.8553 54.5995 63.9146 54.0029 63.8023 53.4265C63.6899 52.8501 63.4109 52.3193 62.9998 51.9L53.9998 42H54.8998C55.487 41.9918 56.0588 41.8114 56.5444 41.4812C57.0301 41.151 57.4081 40.6856 57.6317 40.1425C57.8553 39.5995 57.9146 39.0029 57.8023 38.4265C57.6899 37.8501 57.4109 37.3193 56.9998 36.9L47.9998 27H48.5998C49.2126 27.0553 49.8275 26.9208 50.3613 26.6149C50.895 26.3089 51.3218 25.8462 51.5838 25.2895C51.8458 24.7328 51.9302 24.1091 51.8258 23.5028C51.7213 22.8965 51.433 22.3369 50.9998 21.9L38.9998 9L34.7998 13.5" stroke="#3A7F88" stroke-width="4" stroke-linecap="round" stroke-linejoin="round"/>
</svg>
